# xmcd
#
# Track frame offsets:
#	150
#	14940
#	37190
#	54000
#	70650
#	89860
#	112950
#	130340
#	148890
#	167140
#	188090
#	208100
#
# Disc length: 3078 seconds
#
# Revision: 0
# Processed by: cddbd v1.5.2PL0 Copyright (c) Steve Scherf et al.
# Submitted via: audiograbber 1.83.01
#
DISCID=b70c040c
DTITLE=Gunter Kirsten - Mythos Mundharmonika
DYEAR=2014
DGENRE=
TTITLE0=Scarborough Fair
TTITLE1=Greensleeves
TTITLE2=Take Me Home, Country Roads
TTITLE3=Yesterday
TTITLE4=Amazing Grace
TTITLE5=Nun will der Lenz und grussen
TTITLE6=La Maladie d'Amour
TTITLE7=Besame Mucho
TTITLE8=Morning Has Broken
TTITLE9=Vilo moja
TTITLE10=Let It Be
TTITLE11=My Way
EXTD=
EXTT0=
EXTT1=
EXTT2=
EXTT3=
EXTT4=
EXTT5=
EXTT6=
EXTT7=
EXTT8=
EXTT9=
EXTT10=
EXTT11=
PLAYORDER=
